<svg width="62" height="25" viewBox="0 0 62 25" fill="none" xmlns="http://www.w3.org/2000/svg">
<rect width="62" height="25" fill="#E5E5E5"/>
<rect width="1152" height="2041" transform="translate(-410 -1372)" fill="white"/>
<rect width="62" height="25" rx="12.5" fill="#142850"/>
<path d="M10.7559 18V15.8555L14.8516 11.6279C15.3379 11.0947 15.7012 10.6113 15.9414 10.1777C16.1875 9.74414 16.3105 9.38086 16.3105 9.08789C16.3105 8.56641 16.1992 8.18262 15.9766 7.93652C15.7598 7.69043 15.4375 7.56738 15.0098 7.56738C14.7461 7.56738 14.5117 7.64941 14.3066 7.81348C14.1016 7.97754 13.9404 8.2002 13.8232 8.48145C13.7061 8.7627 13.6475 9.07324 13.6475 9.41309H10.4834C10.4834 8.61621 10.6797 7.88379 11.0723 7.21582C11.4707 6.54199 12.0215 6.00879 12.7246 5.61621C13.4277 5.21777 14.2188 5.01855 15.0977 5.01855C16.5332 5.01855 17.6201 5.34668 18.3584 6.00293C19.0967 6.65332 19.4658 7.59082 19.4658 8.81543C19.4658 9.41309 19.3457 9.98145 19.1055 10.5205C18.8652 11.0537 18.5283 11.584 18.0947 12.1113C17.6611 12.6387 17.0605 13.292 16.293 14.0713L14.9219 15.4512H19.7559V18H10.7559ZM30.2412 12.8496C30.2412 13.9922 30.0508 14.9648 29.6699 15.7676C29.2949 16.5645 28.7676 17.165 28.0879 17.5693C27.4082 17.9736 26.623 18.1758 25.7324 18.1758C24.8301 18.1758 24.0361 17.9736 23.3506 17.5693C22.6709 17.165 22.1406 16.5645 21.7598 15.7676C21.3848 14.9707 21.1973 13.998 21.1973 12.8496V10.3799C21.1973 9.23145 21.3848 8.25586 21.7598 7.45312C22.1406 6.65039 22.668 6.04688 23.3418 5.64258C24.0215 5.23242 24.8125 5.02734 25.7148 5.02734C26.6055 5.02734 27.3906 5.23242 28.0703 5.64258C28.7559 6.05273 29.2891 6.65918 29.6699 7.46191C30.0508 8.26465 30.2412 9.2373 30.2412 10.3799V12.8496ZM27.0859 9.98438C27.0859 9.12891 26.9658 8.51367 26.7256 8.13867C26.4912 7.76367 26.1543 7.57617 25.7148 7.57617C25.2637 7.57617 24.9209 7.76367 24.6865 8.13867C24.458 8.50781 24.3438 9.12305 24.3438 9.98438V13.2275C24.3438 14.1064 24.4609 14.7275 24.6953 15.0908C24.9297 15.4482 25.2754 15.627 25.7324 15.627C26.1719 15.627 26.5059 15.4453 26.7344 15.082C26.9688 14.7188 27.0859 14.1006 27.0859 13.2275V9.98438ZM35.2861 18V8.9209L32.4121 9.67676V7.21582L38.1602 5.2207H38.4326V18H35.2861ZM49.2607 11.4082C49.8701 11.707 50.3418 12.1172 50.6758 12.6387C51.0156 13.1602 51.1855 13.7666 51.1855 14.458C51.1855 15.2666 50.9951 15.9492 50.6143 16.5059C50.2334 17.0625 49.7031 17.4814 49.0234 17.7627C48.3496 18.0381 47.5703 18.1758 46.6855 18.1758C45.8008 18.1758 45.0156 18.0381 44.3301 17.7627C43.6445 17.4814 43.1055 17.0625 42.7129 16.5059C42.3262 15.9492 42.1328 15.2666 42.1328 14.458C42.1328 13.7666 42.3057 13.1602 42.6514 12.6387C42.9971 12.1172 43.4775 11.7041 44.0928 11.3994C43.5596 11.1064 43.1436 10.7256 42.8447 10.2568C42.5518 9.78223 42.4053 9.24609 42.4053 8.64844C42.4053 7.875 42.584 7.21582 42.9414 6.6709C43.3047 6.12598 43.8057 5.71582 44.4443 5.44043C45.0889 5.15918 45.8271 5.01855 46.6592 5.01855C47.5029 5.01855 48.2441 5.15918 48.8828 5.44043C49.5273 5.71582 50.0283 6.12598 50.3857 6.6709C50.749 7.21582 50.9307 7.875 50.9307 8.64844C50.9307 9.25195 50.7842 9.79102 50.4912 10.2656C50.2041 10.7344 49.7939 11.1152 49.2607 11.4082ZM46.6592 7.56738C46.3018 7.56738 46.0293 7.67871 45.8418 7.90137C45.6602 8.11816 45.5693 8.43164 45.5693 8.8418C45.5693 9.25781 45.6631 9.58594 45.8506 9.82617C46.0381 10.0664 46.3164 10.1865 46.6855 10.1865C47.0488 10.1865 47.3213 10.0664 47.5029 9.82617C47.6904 9.58594 47.7842 9.25781 47.7842 8.8418C47.7842 8.43164 47.6904 8.11816 47.5029 7.90137C47.3154 7.67871 47.0342 7.56738 46.6592 7.56738ZM46.6855 15.627C47.084 15.627 47.4062 15.4951 47.6523 15.2314C47.8984 14.9678 48.0215 14.6133 48.0215 14.168C48.0215 13.7051 47.8984 13.3506 47.6523 13.1045C47.4121 12.8584 47.084 12.7354 46.668 12.7354C46.252 12.7354 45.918 12.8584 45.666 13.1045C45.4199 13.3506 45.2969 13.7051 45.2969 14.168C45.2969 14.6133 45.4258 14.9678 45.6836 15.2314C45.9414 15.4951 46.2754 15.627 46.6855 15.627Z" fill="white"/>
</svg>
