<svg width="62" height="25" viewBox="0 0 62 25" fill="none" xmlns="http://www.w3.org/2000/svg">
<rect width="62" height="25" fill="#E5E5E5"/>
<rect width="1152" height="2041" transform="translate(-410 -1141)" fill="white"/>
<rect width="62" height="25" rx="12.5" fill="#142850"/>
<path d="M10.7559 18V15.8555L14.8516 11.6279C15.3379 11.0947 15.7012 10.6113 15.9414 10.1777C16.1875 9.74414 16.3105 9.38086 16.3105 9.08789C16.3105 8.56641 16.1992 8.18262 15.9766 7.93652C15.7598 7.69043 15.4375 7.56738 15.0098 7.56738C14.7461 7.56738 14.5117 7.64941 14.3066 7.81348C14.1016 7.97754 13.9404 8.2002 13.8232 8.48145C13.7061 8.7627 13.6475 9.07324 13.6475 9.41309H10.4834C10.4834 8.61621 10.6797 7.88379 11.0723 7.21582C11.4707 6.54199 12.0215 6.00879 12.7246 5.61621C13.4277 5.21777 14.2188 5.01855 15.0977 5.01855C16.5332 5.01855 17.6201 5.34668 18.3584 6.00293C19.0967 6.65332 19.4658 7.59082 19.4658 8.81543C19.4658 9.41309 19.3457 9.98145 19.1055 10.5205C18.8652 11.0537 18.5283 11.584 18.0947 12.1113C17.6611 12.6387 17.0605 13.292 16.293 14.0713L14.9219 15.4512H19.7559V18H10.7559ZM30.2412 12.8496C30.2412 13.9922 30.0508 14.9648 29.6699 15.7676C29.2949 16.5645 28.7676 17.165 28.0879 17.5693C27.4082 17.9736 26.623 18.1758 25.7324 18.1758C24.8301 18.1758 24.0361 17.9736 23.3506 17.5693C22.6709 17.165 22.1406 16.5645 21.7598 15.7676C21.3848 14.9707 21.1973 13.998 21.1973 12.8496V10.3799C21.1973 9.23145 21.3848 8.25586 21.7598 7.45312C22.1406 6.65039 22.668 6.04688 23.3418 5.64258C24.0215 5.23242 24.8125 5.02734 25.7148 5.02734C26.6055 5.02734 27.3906 5.23242 28.0703 5.64258C28.7559 6.05273 29.2891 6.65918 29.6699 7.46191C30.0508 8.26465 30.2412 9.2373 30.2412 10.3799V12.8496ZM27.0859 9.98438C27.0859 9.12891 26.9658 8.51367 26.7256 8.13867C26.4912 7.76367 26.1543 7.57617 25.7148 7.57617C25.2637 7.57617 24.9209 7.76367 24.6865 8.13867C24.458 8.50781 24.3438 9.12305 24.3438 9.98438V13.2275C24.3438 14.1064 24.4609 14.7275 24.6953 15.0908C24.9297 15.4482 25.2754 15.627 25.7324 15.627C26.1719 15.627 26.5059 15.4453 26.7344 15.082C26.9688 14.7188 27.0859 14.1006 27.0859 13.2275V9.98438ZM31.709 18V15.8555L35.8047 11.6279C36.291 11.0947 36.6543 10.6113 36.8945 10.1777C37.1406 9.74414 37.2637 9.38086 37.2637 9.08789C37.2637 8.56641 37.1523 8.18262 36.9297 7.93652C36.7129 7.69043 36.3906 7.56738 35.9629 7.56738C35.6992 7.56738 35.4648 7.64941 35.2598 7.81348C35.0547 7.97754 34.8936 8.2002 34.7764 8.48145C34.6592 8.7627 34.6006 9.07324 34.6006 9.41309H31.4365C31.4365 8.61621 31.6328 7.88379 32.0254 7.21582C32.4238 6.54199 32.9746 6.00879 33.6777 5.61621C34.3809 5.21777 35.1719 5.01855 36.0508 5.01855C37.4863 5.01855 38.5732 5.34668 39.3115 6.00293C40.0498 6.65332 40.4189 7.59082 40.4189 8.81543C40.4189 9.41309 40.2988 9.98145 40.0586 10.5205C39.8184 11.0537 39.4814 11.584 39.0479 12.1113C38.6143 12.6387 38.0137 13.292 37.2461 14.0713L35.875 15.4512H40.709V18H31.709ZM51.1943 12.8496C51.1943 13.9922 51.0039 14.9648 50.623 15.7676C50.248 16.5645 49.7207 17.165 49.041 17.5693C48.3613 17.9736 47.5762 18.1758 46.6855 18.1758C45.7832 18.1758 44.9893 17.9736 44.3037 17.5693C43.624 17.165 43.0938 16.5645 42.7129 15.7676C42.3379 14.9707 42.1504 13.998 42.1504 12.8496V10.3799C42.1504 9.23145 42.3379 8.25586 42.7129 7.45312C43.0938 6.65039 43.6211 6.04688 44.2949 5.64258C44.9746 5.23242 45.7656 5.02734 46.668 5.02734C47.5586 5.02734 48.3438 5.23242 49.0234 5.64258C49.709 6.05273 50.2422 6.65918 50.623 7.46191C51.0039 8.26465 51.1943 9.2373 51.1943 10.3799V12.8496ZM48.0391 9.98438C48.0391 9.12891 47.9189 8.51367 47.6787 8.13867C47.4443 7.76367 47.1074 7.57617 46.668 7.57617C46.2168 7.57617 45.874 7.76367 45.6396 8.13867C45.4111 8.50781 45.2969 9.12305 45.2969 9.98438V13.2275C45.2969 14.1064 45.4141 14.7275 45.6484 15.0908C45.8828 15.4482 46.2285 15.627 46.6855 15.627C47.125 15.627 47.459 15.4453 47.6875 15.082C47.9219 14.7188 48.0391 14.1006 48.0391 13.2275V9.98438Z" fill="white"/>
</svg>
